<svg id="Layer_1" data-name="Layer 1" xmlns="http://www.w3.org/2000/svg" viewBox="0 0 281.97 394.76"><defs><style>.cls-1{fill:#ea2630;}.cls-2{fill:#19226d;}</style></defs><rect class="cls-1" x="132.98" y="17.99" width="139.5" height="17.9"/><rect class="cls-1" x="132.98" y="53.79" width="139.5" height="17.9"/><rect class="cls-1" x="9.68" y="89.59" width="262.8" height="17.9"/><rect class="cls-1" x="9.68" y="125.49" width="262.8" height="17.9"/><path class="cls-2" d="M124.08,29.79l-1.2-7.4c-.4-2.4-1.3-4.4-2.1-4.4s-1.3,2-1.3,4.4v2a4.35,4.35,0,0,1-4.4,4.3h-2.4v5.4h7.8a3.67,3.67,0,0,0,3.8-3.5c-.1-.3-.1-.6-.2-.8"/><path class="cls-2" d="M106.58,23.49H81.78v-1.2c0-2.4-.6-4.4-1.3-4.4s-1.7,2-2.1,4.3l-1.3,7.5a3.58,3.58,0,0,0,2.8,4.3,2.77,2.77,0,0,0,.9.1h7.3a5.22,5.22,0,0,0,2.1-.4,2.59,2.59,0,0,1-2.6,2.2H77.28a2.69,2.69,0,0,1-2.7-2.7h0v-.4l1-6.2a2.7,2.7,0,0,0-2.2-3.1H21.88a2.5,2.5,0,0,0-2.4,1.6l-9.7,14.6c-.2.2-.1.6,0,.8l1.9,2.2a.63.63,0,0,0,.9.1l6.5-5.1V69a2.67,2.67,0,0,0,2.6,2.7h14.6A2.69,2.69,0,0,0,39,69V58.09a2.69,2.69,0,0,1,2.7-2.7h36.2a2.69,2.69,0,0,1,2.7,2.7h0V69a2.67,2.67,0,0,0,2.6,2.7h14.6a2.69,2.69,0,0,0,2.7-2.7h0V57.19h-7.7a4.44,4.44,0,0,1-4.4-4.4h0v-7.5a4.36,4.36,0,0,1,1.8-3.5v9a4.44,4.44,0,0,0,4.4,4.4h11.8a4.44,4.44,0,0,0,4.4-4.4v-23a4.13,4.13,0,0,0-4.2-4.3"/><path d="M190.61,189.65H190c-8.39,0-16.78,0-25.17,0a.87.87,0,0,1-.89-.5,17.79,17.79,0,0,0-10.57-8.32,27.71,27.71,0,0,0-18.33.46c-7.2,2.74-11.71,8.11-14.1,15.32a35.46,35.46,0,0,0-1.55,12.66,33.34,33.34,0,0,0,2.15,11.26c3.3,8.27,9.4,13.27,18.08,15.08a31.58,31.58,0,0,0,14.47-.16c7.07-1.83,12-6.29,15.09-12.8.56-1.15,1-2.35,1.53-3.63H140.37V201.43h51.95v.76c0,6.8,0,13.59,0,20.39a6.82,6.82,0,0,1-.35,2.15,46.9,46.9,0,0,1-22.77,26.93,47.66,47.66,0,0,1-19.42,5.6,54.31,54.31,0,0,1-24.8-3.44c-15.1-6.13-24.61-17.24-28.42-33a55.65,55.65,0,0,1,1.54-31.86,46.26,46.26,0,0,1,10.29-16.81,3.17,3.17,0,0,0,.3-.34s0-.07,0-.13c-3.36-.71-5.35-3-6.76-5.93a23.61,23.61,0,0,1-2.06-7.6,3.35,3.35,0,0,1,.4-.05c15.4-.19,30.79-.46,46.18-.51A49,49,0,0,1,169.62,163c10.84,5.66,17.74,14.48,20.92,26.25C190.57,189.35,190.58,189.46,190.61,189.65Z"/><path d="M66.69,217.67l22.75,39.06-.57,0c-8.67,0-17.35,0-26,0a.82.82,0,0,1-.82-.52q-10-18.1-19.94-36.22a.89.89,0,0,0-.91-.56c-1.51,0-3,0-4.54,0l-.61,0v37.2H12V158H52.09a48.84,48.84,0,0,1,15.61,2.23,30.38,30.38,0,0,1,15,10.21,28.58,28.58,0,0,1,5.47,12.93,31.36,31.36,0,0,1-1,15.41,27.65,27.65,0,0,1-15.65,17.08c-1.36.6-2.78,1.06-4.18,1.59ZM36,202.47h.46c4.87,0,9.73,0,14.6,0a23.2,23.2,0,0,0,4.16-.43A10.2,10.2,0,0,0,63.72,194a16.18,16.18,0,0,0,.26-6.2c-.65-4.39-3-7.49-7.25-8.94a18.26,18.26,0,0,0-5.82-.83H36Z"/><path d="M200.13,223.65h25.39c.09,1.33.08,2.64.28,3.92a21.14,21.14,0,0,0,1,4.18,9.64,9.64,0,0,0,6.31,5.79,15.28,15.28,0,0,0,10.68-.33A8.69,8.69,0,0,0,247.62,224a15.26,15.26,0,0,0-5.48-4.23,63.67,63.67,0,0,0-9.83-3.63,117.62,117.62,0,0,1-16.95-6.27,27.72,27.72,0,0,1-11.91-10.78,21.72,21.72,0,0,1-2.85-9.3,32.08,32.08,0,0,1,1-12.59,25.2,25.2,0,0,1,10.78-14.06,37.38,37.38,0,0,1,14.91-5.6,58,58,0,0,1,15.57-.32,41.79,41.79,0,0,1,14.67,4.27,24.91,24.91,0,0,1,11.84,12.65A45.33,45.33,0,0,1,273,189.27c0,.11,0,.22,0,.37H247.5c-.08-1.16-.15-2.31-.24-3.45-.54-6.8-5.51-9.59-10-10.06a14.16,14.16,0,0,0-5.19.28c-4.14,1.07-6.42,4.19-6.37,8.64a8.09,8.09,0,0,0,4.09,7.09,43.06,43.06,0,0,0,8.32,3.86c4.56,1.67,9.18,3.18,13.71,4.93a82.36,82.36,0,0,1,9.09,4.08,26.28,26.28,0,0,1,10.76,10.55,22.69,22.69,0,0,1,2.56,10.08,28.26,28.26,0,0,1-5.93,19.26,31.12,31.12,0,0,1-13.14,9.59,43.27,43.27,0,0,1-16.37,3,50.93,50.93,0,0,1-19.39-3.39,31.57,31.57,0,0,1-13.79-10.29,22.84,22.84,0,0,1-3.4-7.19,51.44,51.44,0,0,1-2.11-12.38C200.12,224,200.13,223.87,200.13,223.65Z"/><path d="M28.26,299.1,21,286.56H16.11V299.1h-4V268.43H22a13.18,13.18,0,0,1,5.87,1.19,8.24,8.24,0,0,1,3.59,3.21,8.89,8.89,0,0,1-6.12,13.42l7.7,12.85ZM16.11,283.35H22a6.68,6.68,0,0,0,4.88-1.61,5.74,5.74,0,0,0,1.63-4.29,5.47,5.47,0,0,0-1.61-4.22,7,7,0,0,0-4.9-1.5h-5.9Z"/><path d="M37.71,280.46a10.88,10.88,0,0,1,4.12-4.33,11.24,11.24,0,0,1,5.83-1.54,10.81,10.81,0,0,1,5.5,1.36,9.1,9.1,0,0,1,3.47,3.44V275h4V299.1h-4v-4.49a9.44,9.44,0,0,1-3.54,3.5,10.62,10.62,0,0,1-5.48,1.38,10.86,10.86,0,0,1-5.8-1.58,11.21,11.21,0,0,1-4.1-4.44A14,14,0,0,1,36.22,287,13.66,13.66,0,0,1,37.71,280.46Zm17.82,1.79a7.75,7.75,0,0,0-3-3.11,8.46,8.46,0,0,0-8.2,0,7.69,7.69,0,0,0-3,3.08,9.86,9.86,0,0,0-1.1,4.75,10.06,10.06,0,0,0,1.1,4.82,7.76,7.76,0,0,0,3,3.13A7.93,7.93,0,0,0,48.45,296a8,8,0,0,0,4.11-1.07,7.68,7.68,0,0,0,3-3.13,9.83,9.83,0,0,0,1.1-4.77A9.72,9.72,0,0,0,55.53,282.25Z"/><path d="M85.19,277.21q2.73,2.66,2.73,7.68V299.1H84V285.46a7.7,7.7,0,0,0-1.81-5.52A6.42,6.42,0,0,0,77.23,278a6.58,6.58,0,0,0-5,2,8.08,8.08,0,0,0-1.87,5.77V299.1h-4V275h4v3.43a7.93,7.93,0,0,1,3.23-2.86,10,10,0,0,1,4.51-1A9.76,9.76,0,0,1,85.19,277.21Z"/><path d="M93.33,280.46a10.78,10.78,0,0,1,4.16-4.33,13.19,13.19,0,0,1,13.42.62,10.12,10.12,0,0,1,3.8,6H110.4a6.21,6.21,0,0,0-2.4-3.48,7.38,7.38,0,0,0-4.42-1.27A7.08,7.08,0,0,0,98,280.33,9.64,9.64,0,0,0,95.93,287c0,2.9.7,5.15,2.11,6.73a7.07,7.07,0,0,0,5.54,2.38,7.42,7.42,0,0,0,4.4-1.24,6.24,6.24,0,0,0,2.42-3.52h4.31a10.53,10.53,0,0,1-3.87,5.92,11.58,11.58,0,0,1-7.26,2.22A11.88,11.88,0,0,1,97.49,298a10.64,10.64,0,0,1-4.16-4.35,13.85,13.85,0,0,1-1.5-6.6A13.67,13.67,0,0,1,93.33,280.46Z"/><path d="M135.79,275.71a8.27,8.27,0,0,1,3.45,3.5,11.83,11.83,0,0,1,1.26,5.68V299.1h-4V285.46a7.7,7.7,0,0,0-1.81-5.52,6.42,6.42,0,0,0-4.92-1.92,6.58,6.58,0,0,0-5,2,8.08,8.08,0,0,0-1.87,5.77V299.1h-4V266.54h4v11.88a7.82,7.82,0,0,1,3.28-2.86,11.2,11.2,0,0,1,9.61.15Z"/><path d="M167.78,288.54H148.51a7.59,7.59,0,0,0,7.83,7.57,7.44,7.44,0,0,0,4.33-1.21,6.37,6.37,0,0,0,2.44-3.24h4.32a10.42,10.42,0,0,1-3.88,5.66,11.67,11.67,0,0,1-7.21,2.17A12.15,12.15,0,0,1,150.2,298a10.91,10.91,0,0,1-4.25-4.37,15,15,0,0,1,0-13.14,10.56,10.56,0,0,1,4.2-4.33,12.55,12.55,0,0,1,6.23-1.52,12.06,12.06,0,0,1,6.07,1.5,10.31,10.31,0,0,1,4.07,4.11,12.2,12.2,0,0,1,1.43,5.92A23,23,0,0,1,167.78,288.54Zm-5-7.2a6.51,6.51,0,0,0-2.75-2.5,8.47,8.47,0,0,0-3.85-.86,7.42,7.42,0,0,0-5.17,1.93,7.94,7.94,0,0,0-2.44,5.37h15.22A7.36,7.36,0,0,0,162.76,281.34Z"/><path d="M179.06,275.69a9.37,9.37,0,0,1,4.78-1.14v4.13h-1.06q-6.74,0-6.73,7.31V299.1h-4V275h4v3.91A7.65,7.65,0,0,1,179.06,275.69Z"/><path d="M35.34,319.32a9.48,9.48,0,0,0-3.7-4.16A10.62,10.62,0,0,0,26,313.69a11.42,11.42,0,0,0-5.78,1.47,10.37,10.37,0,0,0-4.05,4.22,13.21,13.21,0,0,0-1.48,6.36,13.05,13.05,0,0,0,1.48,6.34,10.38,10.38,0,0,0,4.05,4.2A11.42,11.42,0,0,0,26,337.75a10.45,10.45,0,0,0,7.39-2.68,11.05,11.05,0,0,0,3.39-7.26H24.56v-3.26h16.5v3.08a15.23,15.23,0,0,1-2.38,6.93,14.7,14.7,0,0,1-5.32,5A15,15,0,0,1,26,341.36a15.55,15.55,0,0,1-7.79-2,14.65,14.65,0,0,1-5.56-5.57,16.87,16.87,0,0,1,0-16.12,14.71,14.71,0,0,1,5.56-5.59,15.55,15.55,0,0,1,7.79-2,15.67,15.67,0,0,1,8.65,2.42,13.93,13.93,0,0,1,5.48,6.82Z"/><path d="M49.57,340a10.92,10.92,0,0,1-4.31-4.37A13.48,13.48,0,0,1,43.7,329a13,13,0,0,1,1.61-6.54,11,11,0,0,1,4.37-4.35,13.43,13.43,0,0,1,12.41,0,11.12,11.12,0,0,1,4.38,4.33,14.13,14.13,0,0,1,0,13.14A11.44,11.44,0,0,1,62,340a12.78,12.78,0,0,1-6.25,1.54A12.33,12.33,0,0,1,49.57,340Zm10.19-3a7.68,7.68,0,0,0,3.06-3,11.14,11.14,0,0,0,0-9.86,7.47,7.47,0,0,0-3-3,8.39,8.39,0,0,0-4-1,8.28,8.28,0,0,0-4,1,7.22,7.22,0,0,0-2.93,3,10.23,10.23,0,0,0-1.1,4.93,10.46,10.46,0,0,0,1.08,5,7.17,7.17,0,0,0,2.88,3,8.08,8.08,0,0,0,4,1A8.39,8.39,0,0,0,59.76,337Z"/><path d="M81.19,337.4,88.67,317h4.27L83.48,341.1H78.81L69.35,317h4.31Z"/><path d="M117.62,330.54H98.35a7.59,7.59,0,0,0,7.83,7.57,7.44,7.44,0,0,0,4.33-1.21,6.42,6.42,0,0,0,2.44-3.24h4.32a10.45,10.45,0,0,1-3.87,5.66,11.73,11.73,0,0,1-7.22,2.17A12.15,12.15,0,0,1,100,340a10.91,10.91,0,0,1-4.25-4.37,15,15,0,0,1,0-13.14,10.56,10.56,0,0,1,4.2-4.33,12.55,12.55,0,0,1,6.23-1.52,12.06,12.06,0,0,1,6.07,1.5,10.31,10.31,0,0,1,4.07,4.11,12.2,12.2,0,0,1,1.43,5.92A23,23,0,0,1,117.62,330.54Zm-5-7.2a6.51,6.51,0,0,0-2.75-2.5A8.47,8.47,0,0,0,106,320a7.44,7.44,0,0,0-5.17,1.93,7.94,7.94,0,0,0-2.44,5.37h15.22A7.36,7.36,0,0,0,112.6,323.34Z"/><path d="M128.9,317.69a9.37,9.37,0,0,1,4.78-1.14v4.13h-1.06q-6.74,0-6.73,7.31V341.1h-4V317h4v3.91A7.65,7.65,0,0,1,128.9,317.69Z"/><path d="M156,319.21q2.73,2.66,2.73,7.68V341.1h-4V327.46a7.7,7.7,0,0,0-1.81-5.52,6.42,6.42,0,0,0-4.93-1.92,6.57,6.57,0,0,0-5,2,8.08,8.08,0,0,0-1.87,5.77V341.1h-4V317h4v3.43a7.93,7.93,0,0,1,3.23-2.86,10,10,0,0,1,4.51-1A9.76,9.76,0,0,1,156,319.21Z"/><path d="M198.18,317.71a8.45,8.45,0,0,1,3.48,3.5,11.71,11.71,0,0,1,1.28,5.68V341.1h-4V327.46a7.78,7.78,0,0,0-1.78-5.52,6.25,6.25,0,0,0-4.82-1.92,6.45,6.45,0,0,0-5,2,8.27,8.27,0,0,0-1.85,5.79V341.1h-4V327.46a7.78,7.78,0,0,0-1.78-5.52A6.25,6.25,0,0,0,175,320a6.45,6.45,0,0,0-5,2,8.27,8.27,0,0,0-1.85,5.79V341.1h-4V317h4v3.47a8,8,0,0,1,3.19-2.9,9.62,9.62,0,0,1,4.43-1,10.39,10.39,0,0,1,5.36,1.36,8.28,8.28,0,0,1,3.48,4,7.91,7.91,0,0,1,3.34-4,10,10,0,0,1,5.2-1.4A10.64,10.64,0,0,1,198.18,317.71Z"/><path d="M230.21,330.54H210.94a7.59,7.59,0,0,0,7.83,7.57,7.46,7.46,0,0,0,4.34-1.21,6.42,6.42,0,0,0,2.44-3.24h4.31a10.35,10.35,0,0,1-3.87,5.66,11.7,11.7,0,0,1-7.22,2.17,12.13,12.13,0,0,1-6.13-1.54,10.84,10.84,0,0,1-4.25-4.37,13.58,13.58,0,0,1-1.54-6.58,13.77,13.77,0,0,1,1.5-6.56,10.44,10.44,0,0,1,4.2-4.33,12.51,12.51,0,0,1,6.22-1.52,12.1,12.1,0,0,1,6.08,1.5,10.38,10.38,0,0,1,4.07,4.11,12.2,12.2,0,0,1,1.43,5.92A23.13,23.13,0,0,1,230.21,330.54Zm-5-7.2a6.57,6.57,0,0,0-2.75-2.5,8.47,8.47,0,0,0-3.85-.86,7.4,7.4,0,0,0-5.17,1.93,7.9,7.9,0,0,0-2.44,5.37h15.22A7.45,7.45,0,0,0,225.2,323.34Z"/><path d="M253.36,319.21q2.73,2.66,2.73,7.68V341.1h-4V327.46a7.74,7.74,0,0,0-1.81-5.52,6.42,6.42,0,0,0-4.93-1.92,6.57,6.57,0,0,0-5,2,8.08,8.08,0,0,0-1.88,5.77V341.1h-4V317h4v3.43a8,8,0,0,1,3.24-2.86,10,10,0,0,1,4.51-1A9.76,9.76,0,0,1,253.36,319.21Z"/><path d="M266.38,320.29V334.5a3.36,3.36,0,0,0,.75,2.48,3.66,3.66,0,0,0,2.6.73h2.94v3.39h-3.6a7.17,7.17,0,0,1-5-1.54c-1.11-1-1.67-2.71-1.67-5.06V320.29h-3.13V317h3.13v-6.08h4V317h6.29v3.3Z"/><path d="M16.4,382.33a9,9,0,0,1-3.76-3,7.68,7.68,0,0,1-1.41-4.43h4.26a5.64,5.64,0,0,0,1.79,3.63A6.36,6.36,0,0,0,21.83,380a6.67,6.67,0,0,0,4.51-1.43A4.64,4.64,0,0,0,28,374.91a4.17,4.17,0,0,0-1-2.86,6.15,6.15,0,0,0-2.42-1.67,37.61,37.61,0,0,0-3.91-1.23,35.92,35.92,0,0,1-4.87-1.58,7.92,7.92,0,0,1-3.12-2.49,7.34,7.34,0,0,1-1.3-4.55,7.9,7.9,0,0,1,1.28-4.45,8.29,8.29,0,0,1,3.59-3,12.66,12.66,0,0,1,5.3-1.06,11.09,11.09,0,0,1,7.06,2.16,8,8,0,0,1,3.1,5.72h-4.4a4.74,4.74,0,0,0-1.85-3.1,6.52,6.52,0,0,0-4.31-1.34,6.28,6.28,0,0,0-4.09,1.29,4.44,4.44,0,0,0-1.59,3.63,3.93,3.93,0,0,0,1,2.73,6.1,6.1,0,0,0,2.33,1.61c.93.37,2.22.78,3.9,1.25a37.38,37.38,0,0,1,4.88,1.65,8.23,8.23,0,0,1,3.17,2.51,7.29,7.29,0,0,1,1.32,4.6A8.1,8.1,0,0,1,30.85,379a8.67,8.67,0,0,1-3.52,3.21,11.51,11.51,0,0,1-5.5,1.24A13.09,13.09,0,0,1,16.4,382.33Z"/><path d="M41.17,382a10.92,10.92,0,0,1-4.31-4.37A13.37,13.37,0,0,1,35.29,371a13.07,13.07,0,0,1,1.61-6.54,11,11,0,0,1,4.38-4.35,13.43,13.43,0,0,1,12.41,0,11.16,11.16,0,0,1,4.37,4.33,14.06,14.06,0,0,1,0,13.14A11.38,11.38,0,0,1,53.55,382a12.74,12.74,0,0,1-6.24,1.54A12.3,12.3,0,0,1,41.17,382Zm10.19-3a7.59,7.59,0,0,0,3-3A9.72,9.72,0,0,0,55.58,371a9.9,9.9,0,0,0-1.14-4.93,7.55,7.55,0,0,0-3-3,8.64,8.64,0,0,0-8,0,7.2,7.2,0,0,0-2.92,3,10.12,10.12,0,0,0-1.1,4.93,10.58,10.58,0,0,0,1.07,5,7.13,7.13,0,0,0,2.89,3,8.08,8.08,0,0,0,4,1A8.45,8.45,0,0,0,51.36,379Z"/><path d="M67.81,350.54V383.1h-4V350.54Z"/><path d="M94.87,359V383.1h-4v-3.57a7.83,7.83,0,0,1-3.19,2.89,9.87,9.87,0,0,1-4.51,1,10.75,10.75,0,0,1-5.06-1.17,8.46,8.46,0,0,1-3.55-3.49,11.6,11.6,0,0,1-1.29-5.68V359h4v13.59a7.7,7.7,0,0,0,1.8,5.48A6.42,6.42,0,0,0,84,380,6.58,6.58,0,0,0,89,378a8.15,8.15,0,0,0,1.85-5.76V359Z"/><path d="M105.39,362.29V376.5a3.4,3.4,0,0,0,.74,2.48,3.67,3.67,0,0,0,2.6.73h3v3.39h-3.61a7.18,7.18,0,0,1-5-1.54c-1.11-1-1.67-2.71-1.67-5.06V362.29H98.26V359h3.12v-6.08h4V359h6.29v3.3Z"/><path d="M115.51,354.28a2.74,2.74,0,0,1,1.93-4.67,2.5,2.5,0,0,1,1.87.8,2.82,2.82,0,0,1,0,3.87,2.49,2.49,0,0,1-1.87.79A2.6,2.6,0,0,1,115.51,354.28Zm3.87,4.71V383.1h-4V359Z"/><path d="M129.43,382a10.92,10.92,0,0,1-4.31-4.37,13.48,13.48,0,0,1-1.56-6.58,13.07,13.07,0,0,1,1.6-6.54,11,11,0,0,1,4.38-4.35,13.43,13.43,0,0,1,12.41,0,11.12,11.12,0,0,1,4.38,4.33,13,13,0,0,1,1.6,6.56,12.89,12.89,0,0,1-1.65,6.58,11.42,11.42,0,0,1-4.46,4.37,12.78,12.78,0,0,1-6.25,1.54A12.3,12.3,0,0,1,129.43,382Zm10.19-3a7.68,7.68,0,0,0,3.06-3,11.14,11.14,0,0,0,0-9.86,7.47,7.47,0,0,0-3-3,8.39,8.39,0,0,0-4-1,8.26,8.26,0,0,0-4,1,7.22,7.22,0,0,0-2.93,3,10.23,10.23,0,0,0-1.1,4.93,10.46,10.46,0,0,0,1.08,5,7.17,7.17,0,0,0,2.88,3,8.08,8.08,0,0,0,4,1A8.39,8.39,0,0,0,139.62,379Z"/><path d="M171,361.21q2.72,2.66,2.72,7.68V383.1h-4V369.46a7.74,7.74,0,0,0-1.8-5.52A6.44,6.44,0,0,0,163,362a6.61,6.61,0,0,0-5,2,8.12,8.12,0,0,0-1.87,5.77V383.1h-4V359h4v3.43a8,8,0,0,1,3.24-2.86,9.93,9.93,0,0,1,4.51-1A9.76,9.76,0,0,1,171,361.21Z"/><path d="M182.65,382.55a8.36,8.36,0,0,1-3.48-2.64,7,7,0,0,1-1.4-3.9h4.13a4,4,0,0,0,1.7,2.95,6.4,6.4,0,0,0,4,1.15,5.78,5.78,0,0,0,3.61-1,3.08,3.08,0,0,0,1.32-2.55,2.51,2.51,0,0,0-1.41-2.35,20,20,0,0,0-4.36-1.52,32.71,32.71,0,0,1-4.38-1.43,7.67,7.67,0,0,1-2.9-2.16,5.59,5.59,0,0,1-1.21-3.76,5.74,5.74,0,0,1,1.1-3.39,7.46,7.46,0,0,1,3.12-2.44,11.28,11.28,0,0,1,4.63-.9,9.9,9.9,0,0,1,6.46,2,7.29,7.29,0,0,1,2.64,5.55h-4a4.15,4.15,0,0,0-1.52-3A5.66,5.66,0,0,0,187,362a5.76,5.76,0,0,0-3.43.92,2.88,2.88,0,0,0-1.28,2.42,2.67,2.67,0,0,0,.77,2,5.76,5.76,0,0,0,1.94,1.23,33.07,33.07,0,0,0,3.23,1,35.78,35.78,0,0,1,4.23,1.38,7.42,7.42,0,0,1,2.79,2.05,5.46,5.46,0,0,1,1.21,3.56,6.15,6.15,0,0,1-1.1,3.57,7.36,7.36,0,0,1-3.1,2.48,11.14,11.14,0,0,1-4.6.9A12.48,12.48,0,0,1,182.65,382.55Z"/></svg>